<mxfile host="drawio-plugin" modified="2024-05-10T08:56:54.784Z" agent="5.0 (Windows NT 10.0; Win64; x64) AppleWebKit/537.36 (KHTML, like Gecko) Chrome/122.0.0.0 Safari/537.36" etag="qU1OL2id4AGdcUDieA3p" version="20.5.3" type="embed"><diagram name="Страница 1" id="78bPa6vrNS4iNN6jRh6c"><mxGraphModel dx="3793" dy="1638" grid="1" gridSize="10" guides="1" tooltips="1" connect="1" arrows="1" fold="1" page="1" pageScale="1" pageWidth="827" pageHeight="1169" math="0" shadow="0"><root><mxCell id="0"/><mxCell id="1" parent="0"/><mxCell id="znQNDZUjnKXtjpk14yAP-1" value="List" style="swimlane;fontStyle=0;childLayout=stackLayout;horizontal=1;startSize=26;horizontalStack=0;resizeParent=1;resizeParentMax=0;resizeLast=0;collapsible=1;marginBottom=0;align=center;fontSize=14;" parent="1" vertex="1"><mxGeometry x="-2110" y="-780" width="160" height="116" as="geometry"/></mxCell><mxCell id="znQNDZUjnKXtjpk14yAP-2" value="Item 1" style="text;strokeColor=none;fillColor=none;spacingLeft=4;spacingRight=4;overflow=hidden;rotatable=0;points=[[0,0.5],[1,0.5]];portConstraint=eastwest;fontSize=12;whiteSpace=wrap;html=1;" parent="znQNDZUjnKXtjpk14yAP-1" vertex="1"><mxGeometry y="26" width="160" height="30" as="geometry"/></mxCell><mxCell id="znQNDZUjnKXtjpk14yAP-3" value="Item 2" style="text;strokeColor=none;fillColor=none;spacingLeft=4;spacingRight=4;overflow=hidden;rotatable=0;points=[[0,0.5],[1,0.5]];portConstraint=eastwest;fontSize=12;whiteSpace=wrap;html=1;" parent="znQNDZUjnKXtjpk14yAP-1" vertex="1"><mxGeometry y="56" width="160" height="30" as="geometry"/></mxCell><mxCell id="znQNDZUjnKXtjpk14yAP-4" value="Item 3" style="text;strokeColor=none;fillColor=none;spacingLeft=4;spacingRight=4;overflow=hidden;rotatable=0;points=[[0,0.5],[1,0.5]];portConstraint=eastwest;fontSize=12;whiteSpace=wrap;html=1;" parent="znQNDZUjnKXtjpk14yAP-1" vertex="1"><mxGeometry y="86" width="160" height="30" as="geometry"/></mxCell><mxCell id="znQNDZUjnKXtjpk14yAP-65" style="edgeStyle=orthogonalEdgeStyle;rounded=0;orthogonalLoop=1;jettySize=auto;html=1;endArrow=ERoneToMany;endFill=0;startArrow=ERmandOne;startFill=0;" parent="1" source="znQNDZUjnKXtjpk14yAP-7" target="znQNDZUjnKXtjpk14yAP-42" edge="1"><mxGeometry relative="1" as="geometry"/></mxCell><mxCell id="znQNDZUjnKXtjpk14yAP-7" value="User" style="swimlane;fontStyle=0;childLayout=stackLayout;horizontal=1;startSize=26;horizontalStack=0;resizeParent=1;resizeParentMax=0;resizeLast=0;collapsible=1;marginBottom=0;align=center;fontSize=14;" parent="1" vertex="1"><mxGeometry x="-1891.5" y="-320" width="200" height="266" as="geometry"/></mxCell><mxCell id="znQNDZUjnKXtjpk14yAP-12" value="- Long: id" style="text;strokeColor=none;fillColor=none;spacingLeft=4;spacingRight=4;overflow=hidden;rotatable=0;points=[[0,0.5],[1,0.5]];portConstraint=eastwest;fontSize=12;whiteSpace=wrap;html=1;" parent="znQNDZUjnKXtjpk14yAP-7" vertex="1"><mxGeometry y="26" width="200" height="30" as="geometry"/></mxCell><mxCell id="znQNDZUjnKXtjpk14yAP-8" value="- String: phone_number" style="text;strokeColor=none;fillColor=none;spacingLeft=4;spacingRight=4;overflow=hidden;rotatable=0;points=[[0,0.5],[1,0.5]];portConstraint=eastwest;fontSize=12;whiteSpace=wrap;html=1;" parent="znQNDZUjnKXtjpk14yAP-7" vertex="1"><mxGeometry y="56" width="200" height="30" as="geometry"/></mxCell><mxCell id="znQNDZUjnKXtjpk14yAP-9" value="- String:&amp;nbsp;name" style="text;strokeColor=none;fillColor=none;spacingLeft=4;spacingRight=4;overflow=hidden;rotatable=0;points=[[0,0.5],[1,0.5]];portConstraint=eastwest;fontSize=12;whiteSpace=wrap;html=1;" parent="znQNDZUjnKXtjpk14yAP-7" vertex="1"><mxGeometry y="86" width="200" height="30" as="geometry"/></mxCell><mxCell id="znQNDZUjnKXtjpk14yAP-13" value="- String:&amp;nbsp;email" style="text;strokeColor=none;fillColor=none;spacingLeft=4;spacingRight=4;overflow=hidden;rotatable=0;points=[[0,0.5],[1,0.5]];portConstraint=eastwest;fontSize=12;whiteSpace=wrap;html=1;" parent="znQNDZUjnKXtjpk14yAP-7" vertex="1"><mxGeometry y="116" width="200" height="30" as="geometry"/></mxCell><mxCell id="znQNDZUjnKXtjpk14yAP-11" value="- LocalDate:&amp;nbsp;birth_date" style="text;strokeColor=none;fillColor=none;spacingLeft=4;spacingRight=4;overflow=hidden;rotatable=0;points=[[0,0.5],[1,0.5]];portConstraint=eastwest;fontSize=12;whiteSpace=wrap;html=1;" parent="znQNDZUjnKXtjpk14yAP-7" vertex="1"><mxGeometry y="146" width="200" height="30" as="geometry"/></mxCell><mxCell id="znQNDZUjnKXtjpk14yAP-10" value="- String:&amp;nbsp;password" style="text;strokeColor=none;fillColor=none;spacingLeft=4;spacingRight=4;overflow=hidden;rotatable=0;points=[[0,0.5],[1,0.5]];portConstraint=eastwest;fontSize=12;whiteSpace=wrap;html=1;" parent="znQNDZUjnKXtjpk14yAP-7" vertex="1"><mxGeometry y="176" width="200" height="30" as="geometry"/></mxCell><mxCell id="znQNDZUjnKXtjpk14yAP-66" value="- List&amp;lt;Order&amp;gt; orders" style="text;strokeColor=none;fillColor=none;spacingLeft=4;spacingRight=4;overflow=hidden;rotatable=0;points=[[0,0.5],[1,0.5]];portConstraint=eastwest;fontSize=12;whiteSpace=wrap;html=1;" parent="znQNDZUjnKXtjpk14yAP-7" vertex="1"><mxGeometry y="206" width="200" height="30" as="geometry"/></mxCell><mxCell id="Sbk16eOLN6uvIvXcvwpI-40" value="- Long: discond" style="text;strokeColor=none;fillColor=none;spacingLeft=4;spacingRight=4;overflow=hidden;rotatable=0;points=[[0,0.5],[1,0.5]];portConstraint=eastwest;fontSize=12;whiteSpace=wrap;html=1;" parent="znQNDZUjnKXtjpk14yAP-7" vertex="1"><mxGeometry y="236" width="200" height="30" as="geometry"/></mxCell><mxCell id="znQNDZUjnKXtjpk14yAP-14" value="Category" style="swimlane;fontStyle=0;childLayout=stackLayout;horizontal=1;startSize=26;horizontalStack=0;resizeParent=1;resizeParentMax=0;resizeLast=0;collapsible=1;marginBottom=0;align=center;fontSize=14;" parent="1" vertex="1"><mxGeometry x="-2161.5" y="-160" width="160" height="116" as="geometry"/></mxCell><mxCell id="znQNDZUjnKXtjpk14yAP-54" value="- Long:&amp;nbsp;id" style="text;strokeColor=none;fillColor=none;spacingLeft=4;spacingRight=4;overflow=hidden;rotatable=0;points=[[0,0.5],[1,0.5]];portConstraint=eastwest;fontSize=12;whiteSpace=wrap;html=1;" parent="znQNDZUjnKXtjpk14yAP-14" vertex="1"><mxGeometry y="26" width="160" height="30" as="geometry"/></mxCell><mxCell id="znQNDZUjnKXtjpk14yAP-55" value="- String:&amp;nbsp;name" style="text;strokeColor=none;fillColor=none;spacingLeft=4;spacingRight=4;overflow=hidden;rotatable=0;points=[[0,0.5],[1,0.5]];portConstraint=eastwest;fontSize=12;whiteSpace=wrap;html=1;" parent="znQNDZUjnKXtjpk14yAP-14" vertex="1"><mxGeometry y="56" width="160" height="30" as="geometry"/></mxCell><mxCell id="znQNDZUjnKXtjpk14yAP-16" value="- List&amp;lt;Prodoct&amp;gt; products" style="text;strokeColor=none;fillColor=none;spacingLeft=4;spacingRight=4;overflow=hidden;rotatable=0;points=[[0,0.5],[1,0.5]];portConstraint=eastwest;fontSize=12;whiteSpace=wrap;html=1;" parent="znQNDZUjnKXtjpk14yAP-14" vertex="1"><mxGeometry y="86" width="160" height="30" as="geometry"/></mxCell><mxCell id="znQNDZUjnKXtjpk14yAP-34" style="edgeStyle=orthogonalEdgeStyle;rounded=0;orthogonalLoop=1;jettySize=auto;html=1;startArrow=ERmandOne;startFill=0;endArrow=ERoneToMany;endFill=0;" parent="1" source="znQNDZUjnKXtjpk14yAP-36" target="znQNDZUjnKXtjpk14yAP-24" edge="1"><mxGeometry relative="1" as="geometry"/></mxCell><mxCell id="znQNDZUjnKXtjpk14yAP-35" style="edgeStyle=orthogonalEdgeStyle;rounded=0;orthogonalLoop=1;jettySize=auto;html=1;startArrow=ERmandOne;startFill=0;endArrow=ERoneToMany;endFill=0;" parent="1" source="znQNDZUjnKXtjpk14yAP-24" target="znQNDZUjnKXtjpk14yAP-29" edge="1"><mxGeometry relative="1" as="geometry"/></mxCell><mxCell id="znQNDZUjnKXtjpk14yAP-24" value="AttibuteProduct" style="swimlane;fontStyle=0;childLayout=stackLayout;horizontal=1;startSize=26;horizontalStack=0;resizeParent=1;resizeParentMax=0;resizeLast=0;collapsible=1;marginBottom=0;align=center;fontSize=14;" parent="1" vertex="1"><mxGeometry x="-2207.25" y="250" width="251.5" height="116" as="geometry"/></mxCell><mxCell id="znQNDZUjnKXtjpk14yAP-28" value="- Long:&amp;nbsp;id" style="text;strokeColor=none;fillColor=none;spacingLeft=4;spacingRight=4;overflow=hidden;rotatable=0;points=[[0,0.5],[1,0.5]];portConstraint=eastwest;fontSize=12;whiteSpace=wrap;html=1;" parent="znQNDZUjnKXtjpk14yAP-24" vertex="1"><mxGeometry y="26" width="251.5" height="30" as="geometry"/></mxCell><mxCell id="znQNDZUjnKXtjpk14yAP-25" value="- String:&amp;nbsp;name" style="text;strokeColor=none;fillColor=none;spacingLeft=4;spacingRight=4;overflow=hidden;rotatable=0;points=[[0,0.5],[1,0.5]];portConstraint=eastwest;fontSize=12;whiteSpace=wrap;html=1;" parent="znQNDZUjnKXtjpk14yAP-24" vertex="1"><mxGeometry y="56" width="251.5" height="30" as="geometry"/></mxCell><mxCell id="znQNDZUjnKXtjpk14yAP-26" value="- List&amp;lt;FeatureAttribute&amp;gt; featuresAttribute" style="text;strokeColor=none;fillColor=none;spacingLeft=4;spacingRight=4;overflow=hidden;rotatable=0;points=[[0,0.5],[1,0.5]];portConstraint=eastwest;fontSize=12;whiteSpace=wrap;html=1;" parent="znQNDZUjnKXtjpk14yAP-24" vertex="1"><mxGeometry y="86" width="251.5" height="30" as="geometry"/></mxCell><mxCell id="znQNDZUjnKXtjpk14yAP-29" value="FeatureAttribute" style="swimlane;fontStyle=0;childLayout=stackLayout;horizontal=1;startSize=26;horizontalStack=0;resizeParent=1;resizeParentMax=0;resizeLast=0;collapsible=1;marginBottom=0;align=center;fontSize=14;" parent="1" vertex="1"><mxGeometry x="-2191.5" y="410" width="220" height="146" as="geometry"/></mxCell><mxCell id="znQNDZUjnKXtjpk14yAP-30" value="- Long:&amp;nbsp;id" style="text;strokeColor=none;fillColor=none;spacingLeft=4;spacingRight=4;overflow=hidden;rotatable=0;points=[[0,0.5],[1,0.5]];portConstraint=eastwest;fontSize=12;whiteSpace=wrap;html=1;" parent="znQNDZUjnKXtjpk14yAP-29" vertex="1"><mxGeometry y="26" width="220" height="30" as="geometry"/></mxCell><mxCell id="znQNDZUjnKXtjpk14yAP-31" value="- String:&amp;nbsp;name" style="text;strokeColor=none;fillColor=none;spacingLeft=4;spacingRight=4;overflow=hidden;rotatable=0;points=[[0,0.5],[1,0.5]];portConstraint=eastwest;fontSize=12;whiteSpace=wrap;html=1;" parent="znQNDZUjnKXtjpk14yAP-29" vertex="1"><mxGeometry y="56" width="220" height="30" as="geometry"/></mxCell><mxCell id="znQNDZUjnKXtjpk14yAP-33" value="- String:&amp;nbsp;description" style="text;strokeColor=none;fillColor=none;spacingLeft=4;spacingRight=4;overflow=hidden;rotatable=0;points=[[0,0.5],[1,0.5]];portConstraint=eastwest;fontSize=12;whiteSpace=wrap;html=1;" parent="znQNDZUjnKXtjpk14yAP-29" vertex="1"><mxGeometry y="86" width="220" height="30" as="geometry"/></mxCell><mxCell id="znQNDZUjnKXtjpk14yAP-32" value="- Long :&amp;nbsp;price" style="text;strokeColor=none;fillColor=none;spacingLeft=4;spacingRight=4;overflow=hidden;rotatable=0;points=[[0,0.5],[1,0.5]];portConstraint=eastwest;fontSize=12;whiteSpace=wrap;html=1;" parent="znQNDZUjnKXtjpk14yAP-29" vertex="1"><mxGeometry y="116" width="220" height="30" as="geometry"/></mxCell><mxCell id="znQNDZUjnKXtjpk14yAP-49" style="edgeStyle=orthogonalEdgeStyle;rounded=0;orthogonalLoop=1;jettySize=auto;html=1;startArrow=ERmandOne;startFill=0;endArrow=ERoneToMany;endFill=0;" parent="1" source="znQNDZUjnKXtjpk14yAP-14" target="znQNDZUjnKXtjpk14yAP-36" edge="1"><mxGeometry relative="1" as="geometry"><mxPoint x="-1960" y="88" as="sourcePoint"/><mxPoint x="-1880" y="-80" as="targetPoint"/></mxGeometry></mxCell><mxCell id="znQNDZUjnKXtjpk14yAP-36" value="Product" style="swimlane;fontStyle=0;childLayout=stackLayout;horizontal=1;startSize=26;horizontalStack=0;resizeParent=1;resizeParentMax=0;resizeLast=0;collapsible=1;marginBottom=0;align=center;fontSize=14;" parent="1" vertex="1"><mxGeometry x="-2205.87" y="4" width="250.12" height="206" as="geometry"/></mxCell><mxCell id="znQNDZUjnKXtjpk14yAP-37" value="- Long:&amp;nbsp;id" style="text;strokeColor=none;fillColor=none;spacingLeft=4;spacingRight=4;overflow=hidden;rotatable=0;points=[[0,0.5],[1,0.5]];portConstraint=eastwest;fontSize=12;whiteSpace=wrap;html=1;" parent="znQNDZUjnKXtjpk14yAP-36" vertex="1"><mxGeometry y="26" width="250.12" height="30" as="geometry"/></mxCell><mxCell id="znQNDZUjnKXtjpk14yAP-38" value="- String:&amp;nbsp;name" style="text;strokeColor=none;fillColor=none;spacingLeft=4;spacingRight=4;overflow=hidden;rotatable=0;points=[[0,0.5],[1,0.5]];portConstraint=eastwest;fontSize=12;whiteSpace=wrap;html=1;" parent="znQNDZUjnKXtjpk14yAP-36" vertex="1"><mxGeometry y="56" width="250.12" height="30" as="geometry"/></mxCell><mxCell id="znQNDZUjnKXtjpk14yAP-39" value="- String:&amp;nbsp;description" style="text;strokeColor=none;fillColor=none;spacingLeft=4;spacingRight=4;overflow=hidden;rotatable=0;points=[[0,0.5],[1,0.5]];portConstraint=eastwest;fontSize=12;whiteSpace=wrap;html=1;" parent="znQNDZUjnKXtjpk14yAP-36" vertex="1"><mxGeometry y="86" width="250.12" height="30" as="geometry"/></mxCell><mxCell id="znQNDZUjnKXtjpk14yAP-40" value="- String:&amp;nbsp;quantity" style="text;strokeColor=none;fillColor=none;spacingLeft=4;spacingRight=4;overflow=hidden;rotatable=0;points=[[0,0.5],[1,0.5]];portConstraint=eastwest;fontSize=12;whiteSpace=wrap;html=1;" parent="znQNDZUjnKXtjpk14yAP-36" vertex="1"><mxGeometry y="116" width="250.12" height="30" as="geometry"/></mxCell><mxCell id="znQNDZUjnKXtjpk14yAP-41" value="- List&amp;lt;AttibuteProduct&amp;gt;:&amp;nbsp;attributesProduct" style="text;strokeColor=none;fillColor=none;spacingLeft=4;spacingRight=4;overflow=hidden;rotatable=0;points=[[0,0.5],[1,0.5]];portConstraint=eastwest;fontSize=12;whiteSpace=wrap;html=1;" parent="znQNDZUjnKXtjpk14yAP-36" vertex="1"><mxGeometry y="146" width="250.12" height="30" as="geometry"/></mxCell><mxCell id="znQNDZUjnKXtjpk14yAP-50" value="- Category: category" style="text;strokeColor=none;fillColor=none;spacingLeft=4;spacingRight=4;overflow=hidden;rotatable=0;points=[[0,0.5],[1,0.5]];portConstraint=eastwest;fontSize=12;whiteSpace=wrap;html=1;" parent="znQNDZUjnKXtjpk14yAP-36" vertex="1"><mxGeometry y="176" width="250.12" height="30" as="geometry"/></mxCell><mxCell id="znQNDZUjnKXtjpk14yAP-48" style="edgeStyle=orthogonalEdgeStyle;rounded=0;orthogonalLoop=1;jettySize=auto;html=1;startArrow=ERoneToMany;startFill=0;endArrow=ERoneToMany;endFill=0;" parent="1" source="znQNDZUjnKXtjpk14yAP-42" target="znQNDZUjnKXtjpk14yAP-36" edge="1"><mxGeometry relative="1" as="geometry"/></mxCell><mxCell id="Sbk16eOLN6uvIvXcvwpI-34" style="edgeStyle=orthogonalEdgeStyle;rounded=0;orthogonalLoop=1;jettySize=auto;html=1;startArrow=ERmandOne;startFill=0;endArrow=ERmandOne;endFill=0;" parent="1" source="znQNDZUjnKXtjpk14yAP-42" target="Sbk16eOLN6uvIvXcvwpI-6" edge="1"><mxGeometry relative="1" as="geometry"/></mxCell><mxCell id="znQNDZUjnKXtjpk14yAP-42" value="order" style="swimlane;fontStyle=0;childLayout=stackLayout;horizontal=1;startSize=26;horizontalStack=0;resizeParent=1;resizeParentMax=0;resizeLast=0;collapsible=1;marginBottom=0;align=center;fontSize=14;" parent="1" vertex="1"><mxGeometry x="-1910" y="4" width="237" height="296" as="geometry"/></mxCell><mxCell id="znQNDZUjnKXtjpk14yAP-43" value="- Long:&amp;nbsp;id" style="text;strokeColor=none;fillColor=none;spacingLeft=4;spacingRight=4;overflow=hidden;rotatable=0;points=[[0,0.5],[1,0.5]];portConstraint=eastwest;fontSize=12;whiteSpace=wrap;html=1;" parent="znQNDZUjnKXtjpk14yAP-42" vertex="1"><mxGeometry y="26" width="237" height="30" as="geometry"/></mxCell><mxCell id="znQNDZUjnKXtjpk14yAP-44" value="- LocalDate:&amp;nbsp;data_created" style="text;strokeColor=none;fillColor=none;spacingLeft=4;spacingRight=4;overflow=hidden;rotatable=0;points=[[0,0.5],[1,0.5]];portConstraint=eastwest;fontSize=12;whiteSpace=wrap;html=1;" parent="znQNDZUjnKXtjpk14yAP-42" vertex="1"><mxGeometry y="56" width="237" height="30" as="geometry"/></mxCell><mxCell id="znQNDZUjnKXtjpk14yAP-45" value="- LocalDate:&amp;nbsp;ready_time" style="text;strokeColor=none;fillColor=none;spacingLeft=4;spacingRight=4;overflow=hidden;rotatable=0;points=[[0,0.5],[1,0.5]];portConstraint=eastwest;fontSize=12;whiteSpace=wrap;html=1;" parent="znQNDZUjnKXtjpk14yAP-42" vertex="1"><mxGeometry y="86" width="237" height="30" as="geometry"/></mxCell><mxCell id="znQNDZUjnKXtjpk14yAP-46" value="- String:&amp;nbsp;quantity" style="text;strokeColor=none;fillColor=none;spacingLeft=4;spacingRight=4;overflow=hidden;rotatable=0;points=[[0,0.5],[1,0.5]];portConstraint=eastwest;fontSize=12;whiteSpace=wrap;html=1;" parent="znQNDZUjnKXtjpk14yAP-42" vertex="1"><mxGeometry y="116" width="237" height="30" as="geometry"/></mxCell><mxCell id="znQNDZUjnKXtjpk14yAP-51" value="- List&amp;lt;Product&amp;gt;: products" style="text;strokeColor=none;fillColor=none;spacingLeft=4;spacingRight=4;overflow=hidden;rotatable=0;points=[[0,0.5],[1,0.5]];portConstraint=eastwest;fontSize=12;whiteSpace=wrap;html=1;" parent="znQNDZUjnKXtjpk14yAP-42" vertex="1"><mxGeometry y="146" width="237" height="30" as="geometry"/></mxCell><mxCell id="znQNDZUjnKXtjpk14yAP-63" value="- Integer:&amp;nbsp;discount" style="text;strokeColor=none;fillColor=none;spacingLeft=4;spacingRight=4;overflow=hidden;rotatable=0;points=[[0,0.5],[1,0.5]];portConstraint=eastwest;fontSize=12;whiteSpace=wrap;html=1;" parent="znQNDZUjnKXtjpk14yAP-42" vertex="1"><mxGeometry y="176" width="237" height="30" as="geometry"/></mxCell><mxCell id="znQNDZUjnKXtjpk14yAP-64" value="-&amp;nbsp;StatusOrder: status" style="text;strokeColor=none;fillColor=none;spacingLeft=4;spacingRight=4;overflow=hidden;rotatable=0;points=[[0,0.5],[1,0.5]];portConstraint=eastwest;fontSize=12;whiteSpace=wrap;html=1;" parent="znQNDZUjnKXtjpk14yAP-42" vertex="1"><mxGeometry y="206" width="237" height="30" as="geometry"/></mxCell><mxCell id="1kn60qQqCWc--tM7CD5I-9" value="- User: user" style="text;strokeColor=none;fillColor=none;spacingLeft=4;spacingRight=4;overflow=hidden;rotatable=0;points=[[0,0.5],[1,0.5]];portConstraint=eastwest;fontSize=12;whiteSpace=wrap;html=1;" parent="znQNDZUjnKXtjpk14yAP-42" vertex="1"><mxGeometry y="236" width="237" height="30" as="geometry"/></mxCell><mxCell id="Sbk16eOLN6uvIvXcvwpI-35" value="- Delivery: delivery" style="text;strokeColor=none;fillColor=none;spacingLeft=4;spacingRight=4;overflow=hidden;rotatable=0;points=[[0,0.5],[1,0.5]];portConstraint=eastwest;fontSize=12;whiteSpace=wrap;html=1;" parent="znQNDZUjnKXtjpk14yAP-42" vertex="1"><mxGeometry y="266" width="237" height="30" as="geometry"/></mxCell><mxCell id="znQNDZUjnKXtjpk14yAP-56" value="Location" style="swimlane;fontStyle=0;childLayout=stackLayout;horizontal=1;startSize=26;horizontalStack=0;resizeParent=1;resizeParentMax=0;resizeLast=0;collapsible=1;marginBottom=0;align=center;fontSize=14;" parent="1" vertex="1"><mxGeometry x="-1310" width="210" height="146" as="geometry"/></mxCell><mxCell id="znQNDZUjnKXtjpk14yAP-57" value="- Long:&amp;nbsp;id" style="text;strokeColor=none;fillColor=none;spacingLeft=4;spacingRight=4;overflow=hidden;rotatable=0;points=[[0,0.5],[1,0.5]];portConstraint=eastwest;fontSize=12;whiteSpace=wrap;html=1;" parent="znQNDZUjnKXtjpk14yAP-56" vertex="1"><mxGeometry y="26" width="210" height="30" as="geometry"/></mxCell><mxCell id="Sbk16eOLN6uvIvXcvwpI-50" value="- City: city" style="text;strokeColor=none;fillColor=none;spacingLeft=4;spacingRight=4;overflow=hidden;rotatable=0;points=[[0,0.5],[1,0.5]];portConstraint=eastwest;fontSize=12;whiteSpace=wrap;html=1;" parent="znQNDZUjnKXtjpk14yAP-56" vertex="1"><mxGeometry y="56" width="210" height="30" as="geometry"/></mxCell><mxCell id="znQNDZUjnKXtjpk14yAP-58" value="- String: nameAddress&amp;nbsp;" style="text;strokeColor=none;fillColor=none;spacingLeft=4;spacingRight=4;overflow=hidden;rotatable=0;points=[[0,0.5],[1,0.5]];portConstraint=eastwest;fontSize=12;whiteSpace=wrap;html=1;" parent="znQNDZUjnKXtjpk14yAP-56" vertex="1"><mxGeometry y="86" width="210" height="30" as="geometry"/></mxCell><mxCell id="Sbk16eOLN6uvIvXcvwpI-51" value="- String: nameAddress&amp;nbsp;" style="text;strokeColor=none;fillColor=none;spacingLeft=4;spacingRight=4;overflow=hidden;rotatable=0;points=[[0,0.5],[1,0.5]];portConstraint=eastwest;fontSize=12;whiteSpace=wrap;html=1;" parent="znQNDZUjnKXtjpk14yAP-56" vertex="1"><mxGeometry y="116" width="210" height="30" as="geometry"/></mxCell><mxCell id="1kn60qQqCWc--tM7CD5I-1" value="HistoryOrder" style="swimlane;fontStyle=0;childLayout=stackLayout;horizontal=1;startSize=26;horizontalStack=0;resizeParent=1;resizeParentMax=0;resizeLast=0;collapsible=1;marginBottom=0;align=center;fontSize=14;" parent="1" vertex="1"><mxGeometry x="-2398.5" y="-900" width="237" height="236" as="geometry"/></mxCell><mxCell id="1kn60qQqCWc--tM7CD5I-2" value="- Long:&amp;nbsp;id" style="text;strokeColor=none;fillColor=none;spacingLeft=4;spacingRight=4;overflow=hidden;rotatable=0;points=[[0,0.5],[1,0.5]];portConstraint=eastwest;fontSize=12;whiteSpace=wrap;html=1;" parent="1kn60qQqCWc--tM7CD5I-1" vertex="1"><mxGeometry y="26" width="237" height="30" as="geometry"/></mxCell><mxCell id="1kn60qQqCWc--tM7CD5I-3" value="- LocalDate:&amp;nbsp;data_created" style="text;strokeColor=none;fillColor=none;spacingLeft=4;spacingRight=4;overflow=hidden;rotatable=0;points=[[0,0.5],[1,0.5]];portConstraint=eastwest;fontSize=12;whiteSpace=wrap;html=1;" parent="1kn60qQqCWc--tM7CD5I-1" vertex="1"><mxGeometry y="56" width="237" height="30" as="geometry"/></mxCell><mxCell id="1kn60qQqCWc--tM7CD5I-4" value="- LocalDate:&amp;nbsp;ready_time" style="text;strokeColor=none;fillColor=none;spacingLeft=4;spacingRight=4;overflow=hidden;rotatable=0;points=[[0,0.5],[1,0.5]];portConstraint=eastwest;fontSize=12;whiteSpace=wrap;html=1;" parent="1kn60qQqCWc--tM7CD5I-1" vertex="1"><mxGeometry y="86" width="237" height="30" as="geometry"/></mxCell><mxCell id="1kn60qQqCWc--tM7CD5I-5" value="- String:&amp;nbsp;quantity" style="text;strokeColor=none;fillColor=none;spacingLeft=4;spacingRight=4;overflow=hidden;rotatable=0;points=[[0,0.5],[1,0.5]];portConstraint=eastwest;fontSize=12;whiteSpace=wrap;html=1;" parent="1kn60qQqCWc--tM7CD5I-1" vertex="1"><mxGeometry y="116" width="237" height="30" as="geometry"/></mxCell><mxCell id="1kn60qQqCWc--tM7CD5I-6" value="- List&amp;lt;Product&amp;gt;: products" style="text;strokeColor=none;fillColor=none;spacingLeft=4;spacingRight=4;overflow=hidden;rotatable=0;points=[[0,0.5],[1,0.5]];portConstraint=eastwest;fontSize=12;whiteSpace=wrap;html=1;" parent="1kn60qQqCWc--tM7CD5I-1" vertex="1"><mxGeometry y="146" width="237" height="30" as="geometry"/></mxCell><mxCell id="1kn60qQqCWc--tM7CD5I-7" value="- Integer:&amp;nbsp;discount" style="text;strokeColor=none;fillColor=none;spacingLeft=4;spacingRight=4;overflow=hidden;rotatable=0;points=[[0,0.5],[1,0.5]];portConstraint=eastwest;fontSize=12;whiteSpace=wrap;html=1;" parent="1kn60qQqCWc--tM7CD5I-1" vertex="1"><mxGeometry y="176" width="237" height="30" as="geometry"/></mxCell><mxCell id="1kn60qQqCWc--tM7CD5I-8" value="- Status: status" style="text;strokeColor=none;fillColor=none;spacingLeft=4;spacingRight=4;overflow=hidden;rotatable=0;points=[[0,0.5],[1,0.5]];portConstraint=eastwest;fontSize=12;whiteSpace=wrap;html=1;" parent="1kn60qQqCWc--tM7CD5I-1" vertex="1"><mxGeometry y="206" width="237" height="30" as="geometry"/></mxCell><mxCell id="Sbk16eOLN6uvIvXcvwpI-5" style="edgeStyle=orthogonalEdgeStyle;rounded=0;orthogonalLoop=1;jettySize=auto;html=1;endArrow=ERoneToMany;endFill=0;startArrow=ERmandOne;startFill=0;" parent="1" source="Sbk16eOLN6uvIvXcvwpI-1" target="znQNDZUjnKXtjpk14yAP-42" edge="1"><mxGeometry relative="1" as="geometry"/></mxCell><mxCell id="Sbk16eOLN6uvIvXcvwpI-1" value="StatusOrder" style="swimlane;fontStyle=0;childLayout=stackLayout;horizontal=1;startSize=26;horizontalStack=0;resizeParent=1;resizeParentMax=0;resizeLast=0;collapsible=1;marginBottom=0;align=center;fontSize=14;" parent="1" vertex="1"><mxGeometry x="-1871.5" y="390" width="160" height="116" as="geometry"/></mxCell><mxCell id="Sbk16eOLN6uvIvXcvwpI-2" value="- Long:&amp;nbsp;id" style="text;strokeColor=none;fillColor=none;spacingLeft=4;spacingRight=4;overflow=hidden;rotatable=0;points=[[0,0.5],[1,0.5]];portConstraint=eastwest;fontSize=12;whiteSpace=wrap;html=1;" parent="Sbk16eOLN6uvIvXcvwpI-1" vertex="1"><mxGeometry y="26" width="160" height="30" as="geometry"/></mxCell><mxCell id="Sbk16eOLN6uvIvXcvwpI-3" value="- String:&amp;nbsp;name" style="text;strokeColor=none;fillColor=none;spacingLeft=4;spacingRight=4;overflow=hidden;rotatable=0;points=[[0,0.5],[1,0.5]];portConstraint=eastwest;fontSize=12;whiteSpace=wrap;html=1;" parent="Sbk16eOLN6uvIvXcvwpI-1" vertex="1"><mxGeometry y="56" width="160" height="30" as="geometry"/></mxCell><mxCell id="Sbk16eOLN6uvIvXcvwpI-4" value="- List&amp;lt;Order&amp;gt; orders" style="text;strokeColor=none;fillColor=none;spacingLeft=4;spacingRight=4;overflow=hidden;rotatable=0;points=[[0,0.5],[1,0.5]];portConstraint=eastwest;fontSize=12;whiteSpace=wrap;html=1;" parent="Sbk16eOLN6uvIvXcvwpI-1" vertex="1"><mxGeometry y="86" width="160" height="30" as="geometry"/></mxCell><mxCell id="Sbk16eOLN6uvIvXcvwpI-38" style="edgeStyle=orthogonalEdgeStyle;rounded=0;orthogonalLoop=1;jettySize=auto;html=1;endArrow=ERmandOne;endFill=0;startArrow=ERoneToMany;startFill=0;" parent="1" source="Sbk16eOLN6uvIvXcvwpI-6" target="Sbk16eOLN6uvIvXcvwpI-16" edge="1"><mxGeometry relative="1" as="geometry"/></mxCell><mxCell id="Sbk16eOLN6uvIvXcvwpI-6" value="Delivery" style="swimlane;fontStyle=0;childLayout=stackLayout;horizontal=1;startSize=26;horizontalStack=0;resizeParent=1;resizeParentMax=0;resizeLast=0;collapsible=1;marginBottom=0;align=center;fontSize=14;" parent="1" vertex="1"><mxGeometry x="-1608.5" width="237" height="386" as="geometry"/></mxCell><mxCell id="Sbk16eOLN6uvIvXcvwpI-7" value="- Long:&amp;nbsp;id" style="text;strokeColor=none;fillColor=none;spacingLeft=4;spacingRight=4;overflow=hidden;rotatable=0;points=[[0,0.5],[1,0.5]];portConstraint=eastwest;fontSize=12;whiteSpace=wrap;html=1;" parent="Sbk16eOLN6uvIvXcvwpI-6" vertex="1"><mxGeometry y="26" width="237" height="30" as="geometry"/></mxCell><mxCell id="Sbk16eOLN6uvIvXcvwpI-15" value="- String:&amp;nbsp;name" style="text;strokeColor=none;fillColor=none;spacingLeft=4;spacingRight=4;overflow=hidden;rotatable=0;points=[[0,0.5],[1,0.5]];portConstraint=eastwest;fontSize=12;whiteSpace=wrap;html=1;" parent="Sbk16eOLN6uvIvXcvwpI-6" vertex="1"><mxGeometry y="56" width="237" height="30" as="geometry"/></mxCell><mxCell id="Sbk16eOLN6uvIvXcvwpI-18" value="- String: phone_number" style="text;strokeColor=none;fillColor=none;spacingLeft=4;spacingRight=4;overflow=hidden;rotatable=0;points=[[0,0.5],[1,0.5]];portConstraint=eastwest;fontSize=12;whiteSpace=wrap;html=1;" parent="Sbk16eOLN6uvIvXcvwpI-6" vertex="1"><mxGeometry y="86" width="237" height="30" as="geometry"/></mxCell><mxCell id="Sbk16eOLN6uvIvXcvwpI-19" value="- City: city" style="text;strokeColor=none;fillColor=none;spacingLeft=4;spacingRight=4;overflow=hidden;rotatable=0;points=[[0,0.5],[1,0.5]];portConstraint=eastwest;fontSize=12;whiteSpace=wrap;html=1;" parent="Sbk16eOLN6uvIvXcvwpI-6" vertex="1"><mxGeometry y="116" width="237" height="30" as="geometry"/></mxCell><mxCell id="Sbk16eOLN6uvIvXcvwpI-33" value="- String:&amp;nbsp;street&amp;nbsp;" style="text;strokeColor=none;fillColor=none;spacingLeft=4;spacingRight=4;overflow=hidden;rotatable=0;points=[[0,0.5],[1,0.5]];portConstraint=eastwest;fontSize=12;whiteSpace=wrap;html=1;" parent="Sbk16eOLN6uvIvXcvwpI-6" vertex="1"><mxGeometry y="146" width="237" height="30" as="geometry"/></mxCell><mxCell id="Sbk16eOLN6uvIvXcvwpI-20" value="- String:&amp;nbsp;building" style="text;strokeColor=none;fillColor=none;spacingLeft=4;spacingRight=4;overflow=hidden;rotatable=0;points=[[0,0.5],[1,0.5]];portConstraint=eastwest;fontSize=12;whiteSpace=wrap;html=1;" parent="Sbk16eOLN6uvIvXcvwpI-6" vertex="1"><mxGeometry y="176" width="237" height="30" as="geometry"/></mxCell><mxCell id="Sbk16eOLN6uvIvXcvwpI-24" value="- String:&amp;nbsp;entranceNumber" style="text;strokeColor=none;fillColor=none;spacingLeft=4;spacingRight=4;overflow=hidden;rotatable=0;points=[[0,0.5],[1,0.5]];portConstraint=eastwest;fontSize=12;whiteSpace=wrap;html=1;" parent="Sbk16eOLN6uvIvXcvwpI-6" vertex="1"><mxGeometry y="206" width="237" height="30" as="geometry"/></mxCell><mxCell id="Sbk16eOLN6uvIvXcvwpI-31" value="- String:&amp;nbsp;apartment&amp;nbsp;" style="text;strokeColor=none;fillColor=none;spacingLeft=4;spacingRight=4;overflow=hidden;rotatable=0;points=[[0,0.5],[1,0.5]];portConstraint=eastwest;fontSize=12;whiteSpace=wrap;html=1;" parent="Sbk16eOLN6uvIvXcvwpI-6" vertex="1"><mxGeometry y="236" width="237" height="30" as="geometry"/></mxCell><mxCell id="Sbk16eOLN6uvIvXcvwpI-25" value="- LocalDate:&amp;nbsp;deliveryTime" style="text;strokeColor=none;fillColor=none;spacingLeft=4;spacingRight=4;overflow=hidden;rotatable=0;points=[[0,0.5],[1,0.5]];portConstraint=eastwest;fontSize=12;whiteSpace=wrap;html=1;" parent="Sbk16eOLN6uvIvXcvwpI-6" vertex="1"><mxGeometry y="266" width="237" height="30" as="geometry"/></mxCell><mxCell id="Sbk16eOLN6uvIvXcvwpI-36" value="- LocalDate:&amp;nbsp;actualDeliveryTime" style="text;strokeColor=none;fillColor=none;spacingLeft=4;spacingRight=4;overflow=hidden;rotatable=0;points=[[0,0.5],[1,0.5]];portConstraint=eastwest;fontSize=12;whiteSpace=wrap;html=1;" parent="Sbk16eOLN6uvIvXcvwpI-6" vertex="1"><mxGeometry y="296" width="237" height="30" as="geometry"/></mxCell><mxCell id="Sbk16eOLN6uvIvXcvwpI-37" value="- Long:&amp;nbsp;changeAmount" style="text;strokeColor=none;fillColor=none;spacingLeft=4;spacingRight=4;overflow=hidden;rotatable=0;points=[[0,0.5],[1,0.5]];portConstraint=eastwest;fontSize=12;whiteSpace=wrap;html=1;" parent="Sbk16eOLN6uvIvXcvwpI-6" vertex="1"><mxGeometry y="326" width="237" height="30" as="geometry"/></mxCell><mxCell id="Sbk16eOLN6uvIvXcvwpI-39" value="- Payment: payment" style="text;strokeColor=none;fillColor=none;spacingLeft=4;spacingRight=4;overflow=hidden;rotatable=0;points=[[0,0.5],[1,0.5]];portConstraint=eastwest;fontSize=12;whiteSpace=wrap;html=1;" parent="Sbk16eOLN6uvIvXcvwpI-6" vertex="1"><mxGeometry y="356" width="237" height="30" as="geometry"/></mxCell><mxCell id="Sbk16eOLN6uvIvXcvwpI-16" value="Payment" style="swimlane;fontStyle=0;childLayout=stackLayout;horizontal=1;startSize=26;horizontalStack=0;resizeParent=1;resizeParentMax=0;resizeLast=0;collapsible=1;marginBottom=0;align=center;fontSize=14;" parent="1" vertex="1"><mxGeometry x="-1590" y="420" width="200" height="86" as="geometry"/></mxCell><mxCell id="Sbk16eOLN6uvIvXcvwpI-17" value="- Long: id" style="text;strokeColor=none;fillColor=none;spacingLeft=4;spacingRight=4;overflow=hidden;rotatable=0;points=[[0,0.5],[1,0.5]];portConstraint=eastwest;fontSize=12;whiteSpace=wrap;html=1;" parent="Sbk16eOLN6uvIvXcvwpI-16" vertex="1"><mxGeometry y="26" width="200" height="30" as="geometry"/></mxCell><mxCell id="Sbk16eOLN6uvIvXcvwpI-21" value="- LocalDate:&amp;nbsp;birth_date" style="text;strokeColor=none;fillColor=none;spacingLeft=4;spacingRight=4;overflow=hidden;rotatable=0;points=[[0,0.5],[1,0.5]];portConstraint=eastwest;fontSize=12;whiteSpace=wrap;html=1;" parent="Sbk16eOLN6uvIvXcvwpI-16" vertex="1"><mxGeometry y="56" width="200" height="30" as="geometry"/></mxCell><mxCell id="Sbk16eOLN6uvIvXcvwpI-48" style="edgeStyle=orthogonalEdgeStyle;rounded=0;orthogonalLoop=1;jettySize=auto;html=1;startArrow=ERmandOne;startFill=0;endArrow=ERoneToMany;endFill=0;" parent="1" source="Sbk16eOLN6uvIvXcvwpI-41" target="Sbk16eOLN6uvIvXcvwpI-6" edge="1"><mxGeometry relative="1" as="geometry"/></mxCell><mxCell id="Sbk16eOLN6uvIvXcvwpI-49" style="edgeStyle=orthogonalEdgeStyle;rounded=0;orthogonalLoop=1;jettySize=auto;html=1;" parent="1" source="Sbk16eOLN6uvIvXcvwpI-41" target="znQNDZUjnKXtjpk14yAP-56" edge="1"><mxGeometry relative="1" as="geometry"/></mxCell><mxCell id="Sbk16eOLN6uvIvXcvwpI-41" value="City" style="swimlane;fontStyle=0;childLayout=stackLayout;horizontal=1;startSize=26;horizontalStack=0;resizeParent=1;resizeParentMax=0;resizeLast=0;collapsible=1;marginBottom=0;align=center;fontSize=14;" parent="1" vertex="1"><mxGeometry x="-1450" y="-200" width="210" height="86" as="geometry"/></mxCell><mxCell id="Sbk16eOLN6uvIvXcvwpI-42" value="- Long:&amp;nbsp;id" style="text;strokeColor=none;fillColor=none;spacingLeft=4;spacingRight=4;overflow=hidden;rotatable=0;points=[[0,0.5],[1,0.5]];portConstraint=eastwest;fontSize=12;whiteSpace=wrap;html=1;" parent="Sbk16eOLN6uvIvXcvwpI-41" vertex="1"><mxGeometry y="26" width="210" height="30" as="geometry"/></mxCell><mxCell id="Sbk16eOLN6uvIvXcvwpI-43" value="- String: name" style="text;strokeColor=none;fillColor=none;spacingLeft=4;spacingRight=4;overflow=hidden;rotatable=0;points=[[0,0.5],[1,0.5]];portConstraint=eastwest;fontSize=12;whiteSpace=wrap;html=1;" parent="Sbk16eOLN6uvIvXcvwpI-41" vertex="1"><mxGeometry y="56" width="210" height="30" as="geometry"/></mxCell></root></mxGraphModel></diagram></mxfile>